<?xml version="1.0" encoding="utf-8"?>
<!-- Generator: Adobe Illustrator 15.0.0, SVG Export Plug-In . SVG Version: 6.00 Build 0)  -->
<!DOCTYPE svg PUBLIC "-//W3C//DTD SVG 1.1//EN" "http://www.w3.org/Graphics/SVG/1.1/DTD/svg11.dtd">
<svg version="1.1" id="Layer_1" xmlns="http://www.w3.org/2000/svg" xmlns:xlink="http://www.w3.org/1999/xlink" x="0px" y="0px"
	 width="2048px" height="2048px" viewBox="0 0 2048 2048" enable-background="new 0 0 2048 2048" xml:space="preserve">
<g id="Layer_x0020_1">
	<path fill="#D6D6D6" d="M1466.75,1379.5h-84.328l0.405-48.917c0-21.739,17.833-39.572,39.675-39.572h5.42
		c21.824,0,39.747,17.833,39.747,39.572L1466.75,1379.5L1466.75,1379.5z M1150.504,1274.58c-21.335,0-38.848,14.422-38.848,32.002
		v238.08c0,17.579,17.513,31.918,38.848,31.918c21.503,0,38.999-14.339,38.999-31.918v-238.08
		C1189.503,1289.002,1172.007,1274.58,1150.504,1274.58z M1663.999,1141.42v452.993c0,108.669-94.252,197.587-209.41,197.587
		H593.406c-115.243,0-209.41-88.918-209.41-197.587V1141.42c0-108.676,94.167-197.588,209.41-197.588h861.183
		C1569.747,943.832,1663.999,1032.744,1663.999,1141.42z M650.829,1643.583V1166.42h106.752v-70.675l-284.583-0.405v69.501
		l88.834,0.236v478.506H650.829L650.829,1643.583z M970.831,1237.504h-89.005v254.825c0,36.846,2.244,55.253-0.083,61.76
		c-7.251,19.732-39.743,40.747-52.503,2.159c-2.086-6.743-0.254-27.158-0.254-62.165l-0.32-256.579h-88.514l0.26,252.503
		c0.085,38.739-0.919,67.584,0.339,80.742c2.153,23.174,1.324,50.156,22.828,65.582c40.081,28.841,116.838-4.33,135.997-45.589
		l-0.17,52.671l71.509,0.085L970.831,1237.504L970.831,1237.504z M1255.565,1529.344l-0.146-212.179
		c-0.085-80.749-60.588-129.151-142.678-63.828l0.423-157.676l-88.913,0.169l-0.43,544.258l73.087-1.089l6.657-33.919
		C1196.985,1690.836,1255.74,1632.087,1255.565,1529.344L1255.565,1529.344z M1534.161,1501.164l-66.756,0.424
		c-0.084,2.582-0.169,5.654-0.169,9.004v37.251c0,19.901-16.49,36.071-36.501,36.071h-13.081c-19.986,0-36.5-16.17-36.5-36.071
		v-98.007h152.83v-57.492c0-42.011-1.087-84.014-4.498-108.1c-10.988-75.99-117.656-88.084-171.585-49.152
		c-16.914,12.161-29.825,28.416-37.336,50.325c-7.571,21.824-11.326,51.673-11.326,89.668v126.418
		C1309.239,1711.742,1564.578,1682.007,1534.161,1501.164L1534.161,1501.164z M1191.821,814.675
		c4.59,11.073,11.671,20.161,21.419,26.989c9.494,6.761,21.765,10.093,36.416,10.093c12.845,0,24.171-3.417,34.095-10.583
		c9.833-7.165,18.153-17.748,24.914-31.917l-1.663,34.904h99.242v-421.91h-78.082v328.341c0,17.834-14.677,32.323-32.595,32.323
		c-17.815,0-32.491-14.489-32.491-32.323V422.251h-81.492v284.583c0,36.247,0.658,60.418,1.746,72.664
		C1184.419,791.658,1187.237,803.33,1191.821,814.675L1191.821,814.675z M891.151,576.341c0-40.511,3.436-72.084,10.088-94.93
		c6.741-22.743,18.927-40.982,36.507-54.745c17.488-13.825,39.911-20.755,67.238-20.755c22.932,0,42.585,4.499,59.01,13.334
		c16.575,8.83,29.245,20.331,38.08,34.579c9.004,14.252,15.081,28.93,18.407,43.926c3.266,15.252,4.929,38.165,4.929,69.078V673.58
		c0,39.084-1.578,67.923-4.584,86.162c-3.012,18.347-9.494,35.352-19.588,51.268c-9.917,15.826-22.652,27.583-38.163,35.068
		c-15.657,7.681-33.58,11.333-53.821,11.333c-22.592,0-41.689-3.072-57.346-9.67c-15.74-6.398-27.926-16.23-36.586-29.244
		c-8.751-12.989-14.912-28.821-18.667-47.254c-3.756-18.498-5.504-46.249-5.504-83.155V576.341L891.151,576.341z M968.823,743.916
		c0,23.91,17.839,43.412,39.512,43.412c21.655,0,39.319-19.502,39.319-43.412V519.34c0-23.832-17.664-43.354-39.319-43.354
		c-21.673,0-39.512,19.521-39.512,43.354V743.916z M694.332,857.344h93.587l0.085-323.582l110.574-277.187H796.24L737.4,462.422
		l-59.584-206.423H576.482l117.673,277.908L694.332,857.344L694.332,857.344z"/>
</g>
<rect fill="none" width="2048" height="2048"/>
</svg>
